<?xml version="1.0" standalone="no"?>
<!DOCTYPE svg PUBLIC "-//W3C//DTD SVG 20010904//EN"
 "http://www.w3.org/TR/2001/REC-SVG-20010904/DTD/svg10.dtd">
<svg version="1.0" xmlns="http://www.w3.org/2000/svg"
 width="128.000000pt" height="128.000000pt" viewBox="0 0 128.000000 128.000000"
 preserveAspectRatio="xMidYMid meet">
<metadata>
Created by potrace 1.14, written by Peter Selinger 2001-2017
</metadata>
<g transform="translate(0.000000,128.000000) scale(0.100000,-0.100000)"
fill="#000000" stroke="none">
<path d="M515 1266 c-207 -48 -363 -170 -451 -353 -118 -243 -68 -530 125
-723 363 -363 974 -176 1077 330 63 315 -129 633 -441 730 -89 27 -229 35
-310 16z m345 -199 c0 -25 -161 -327 -175 -327 -25 0 -22 25 11 92 19 37 34
70 34 73 0 2 -57 -57 -126 -133 l-127 -137 101 -17 c56 -9 106 -19 112 -23 18
-11 11 -35 -10 -35 -37 0 -255 41 -264 50 -10 10 1 23 234 278 160 175 210
218 210 179z m-127 -367 c119 -22 130 -25 125 -45 -2 -8 -94 -113 -206 -234
-261 -285 -286 -291 -156 -42 86 165 89 170 106 153 10 -10 4 -29 -25 -90
l-37 -77 71 75 c104 111 182 200 178 204 -2 1 -49 11 -104 20 -102 18 -122 26
-111 45 10 15 34 14 159 -9z"/>
</g>
</svg>
